<svg width="48" height="48" viewBox="0 0 48 48" fill="none" xmlns="http://www.w3.org/2000/svg">
<path fill-rule="evenodd" clip-rule="evenodd" d="M24 48C37.2548 48 48 37.2548 48 24C48 10.7452 37.2548 0 24 0C10.7452 0 0 10.7452 0 24C0 37.2548 10.7452 48 24 48Z" fill="#12B4F3"/>
<path d="M36.4999 19.5C35.5 40.5 14 37 12 33.5C15.5908 33.8122 18.2067 32.8119 20.1063 31.1958C16.8448 31.1958 15 29.5 15 27.5C15.5095 27.3726 17.5 27.5 17.5 27.5C14 26.5 11.8221 22.4341 13 21.5C14.5 22.5 15.5 22.5 15.5 22.5C13.5 21 12 18.5 14 15C21.8165 20.8624 25.2287 20.6856 25.5 21C25 20.5 24.9999 19.2328 24.9999 19C24.9999 15.9624 27.4624 13.5 30.4999 13.5C32.3013 13.5 33.9003 14.366 34.9036 15.7043C35.1618 16.0488 37.4999 14 38.4999 14.5C38.5591 14.6373 35.9519 17.3571 35.9999 17.5C36.1034 17.8076 39.0308 16.7409 38.9999 17C38.9755 17.2051 36.4999 19.2289 36.4999 19.5Z" fill="white"/>
</svg>
