<!-- Generated by IcoMoon.io -->
<svg version="1.1" xmlns="http://www.w3.org/2000/svg" width="31" height="32" viewBox="0 0 31 32">
<title>masky</title>
<path d="M24.518 1.999c0.467 0 0.896 0.13 1.288 0.401 0.266 0.186 0.489 0.415 0.686 0.671 0.227 0.295 0.417 0.613 0.579 0.947 0.248 0.512 0.475 1.034 0.604 1.59 0.155 0.655 0.291 1.313 0.422 1.974 0.144 0.734 0.249 1.474 0.333 2.216 0.064 0.564 0.112 1.13 0.146 1.696 0.040 0.697 0.055 1.394 0.051 2.092-0.014 0.396-0.022 0.79-0.046 1.185-0.038 0.678-0.102 1.353-0.192 2.028-0.225 1.701-0.615 3.362-1.187 4.98-0.316 0.897-0.686 1.773-1.118 2.621-0.408 0.805-0.857 1.587-1.395 2.314-0.791 1.068-1.76 1.935-2.948 2.543-0.642 0.329-1.321 0.547-2.034 0.657-0.371 0.057-0.744 0.088-1.117 0.088-0.163 0-0.326-0.006-0.49-0.018-0.995-0.073-1.95-0.31-2.854-0.734-1.717-0.805-3.332-1.779-4.799-2.987-0.568-0.467-1.112-0.961-1.63-1.484-1.702-1.716-3.077-3.667-4.168-5.821-0.956-1.887-1.669-3.861-2.139-5.924-0.134-0.585-0.251-1.171-0.323-1.766-0.079-0.643-0.164-1.286-0.184-1.936-0.012-0.401-0.002-0.802 0.062-1.199 0.048-0.3 0.129-0.591 0.256-0.868 0.279-0.604 0.742-1.005 1.346-1.262 0.455-0.194 0.932-0.279 1.424-0.284 0.017-0 0.033-0 0.050-0 0.518 0 1.027 0.073 1.529 0.19 0.643 0.149 1.282 0.312 1.923 0.471 0.6 0.149 1.202 0.281 1.815 0.366 0.434 0.061 0.871 0.096 1.31 0.105 0.191 0.004 0.382 0.007 0.573 0.007 0.284 0 0.569-0.006 0.853-0.025 0.957-0.064 1.903-0.196 2.813-0.517 0.607-0.215 1.181-0.5 1.742-0.814 0.652-0.366 1.28-0.77 1.907-1.178 0.729-0.476 1.453-0.962 2.211-1.39 0.468-0.264 0.946-0.509 1.454-0.689 0.357-0.126 0.719-0.219 1.1-0.24 0.049-0.003 0.098-0.004 0.147-0.004zM21.084 11.080l-1.806-0.958-0.942 1.778 1.63 0.864-1.020 1.537 1.676 1.113 1.131-1.703 1.806 0.956 0.942-1.778-1.631-0.863 1.020-1.538-1.675-1.112-1.131 1.703zM10.746 13.447l-1.826-0.921-0.905 1.796 1.648 0.831-0.988 1.557 1.699 1.077 1.095-1.725 1.826 0.919 0.905-1.796-1.647-0.831 0.988-1.557-1.698-1.077-1.095 1.726zM17.119 22.712c-0.713 0-1.504-0.13-2.364-0.46-0.164-0.063-0.333-0.093-0.499-0.093-0.561 0-1.090 0.341-1.303 0.897-0.276 0.719 0.084 1.525 0.803 1.801 1.232 0.473 2.367 0.66 3.395 0.66 3.903 0 6.25-2.711 6.372-2.856 0.497-0.588 0.424-1.468-0.165-1.966-0.262-0.221-0.582-0.329-0.9-0.329-0.397 0-0.79 0.168-1.066 0.495-0.020 0.023-1.602 1.85-4.273 1.85zM24.518 0c-0.086 0-0.173 0.002-0.259 0.007-0.526 0.029-1.067 0.144-1.653 0.351-0.702 0.249-1.314 0.576-1.77 0.833-0.701 0.395-1.358 0.826-1.993 1.242-0.11 0.072-0.219 0.144-0.329 0.215-0.602 0.391-1.193 0.772-1.793 1.109-0.55 0.309-1.005 0.522-1.43 0.673-0.615 0.217-1.319 0.343-2.281 0.407-0.209 0.014-0.445 0.021-0.72 0.021-0.193 0-0.387-0.003-0.535-0.006-0.357-0.007-0.715-0.035-1.069-0.085l-0.002-0-0.002-0c-0.461-0.064-0.972-0.168-1.608-0.326-0.136-0.034-0.272-0.068-0.408-0.102-0.504-0.126-1.025-0.256-1.548-0.377-0.697-0.162-1.345-0.241-1.98-0.241-0.023 0-0.045 0-0.068 0-0.779 0.008-1.514 0.157-2.188 0.443-1.086 0.463-1.908 1.246-2.378 2.264l-0.001 0.001-0 0.001c-0.196 0.425-0.335 0.892-0.414 1.388-0.077 0.48-0.104 0.98-0.086 1.575 0.021 0.687 0.101 1.331 0.177 1.953l0.020 0.162c0.090 0.748 0.239 1.446 0.359 1.971 0.504 2.211 1.28 4.359 2.305 6.383 1.207 2.382 2.731 4.51 4.532 6.325 0.559 0.563 1.157 1.108 1.78 1.62 1.528 1.258 3.235 2.322 5.22 3.253 1.101 0.517 2.298 0.826 3.557 0.918 0.209 0.015 0.423 0.023 0.635 0.023 0.465 0 0.944-0.037 1.422-0.111 0.927-0.142 1.816-0.43 2.642-0.854 1.413-0.724 2.639-1.778 3.642-3.132 0.55-0.743 1.049-1.568 1.572-2.599 0.46-0.904 0.871-1.867 1.221-2.861 0.606-1.715 1.038-3.526 1.283-5.382 0.096-0.719 0.165-1.451 0.206-2.174 0.019-0.31 0.028-0.612 0.037-0.904 0.003-0.109 0.007-0.217 0.011-0.326l0.001-0.029 0-0.029c0.005-0.78-0.013-1.506-0.054-2.221l-0-0.002-0-0.002c-0.036-0.605-0.088-1.211-0.155-1.802-0.1-0.878-0.217-1.655-0.358-2.375l-0-0.002-0-0.002c-0.119-0.601-0.264-1.314-0.437-2.042-0.181-0.774-0.482-1.447-0.752-2.004-0.229-0.472-0.496-0.906-0.793-1.293-0.341-0.443-0.709-0.8-1.126-1.091l-0.005-0.003c-0.725-0.503-1.542-0.758-2.428-0.758v0z"></path>
</svg>
