<?xml version="1.0" encoding="UTF-8"?>
<svg width="100px" height="100px" viewBox="0 0 100 100" version="1.1" xmlns="http://www.w3.org/2000/svg" xmlns:xlink="http://www.w3.org/1999/xlink">
    <!-- Generator: Sketch 51.2 (57519) - http://www.bohemiancoding.com/sketch -->
    <title>qc-icon_round</title>
    <desc>Created with Sketch.</desc>
    <defs></defs>
    <g id="qc-icon_round" stroke="none" stroke-width="1" fill="none" fill-rule="evenodd">
        <circle id="Oval" fill="#CEE1D1" cx="50" cy="50" r="50"></circle>
        <g id="qc-logo-copy-2" transform="translate(20.000000, 16.000000)">
            <path d="M31.2670937,63.741285 C31.7378574,64.32348 32.5569739,64.6145732 33.7244679,64.6145732 L33.7244679,65.7977378 C29.6570696,65.6474939 27.058493,65.5723731 25.9286602,65.5723731 C24.6105218,65.5723731 21.6918307,65.6287137 17.1724993,65.7413966 L15.5342499,65.7977378 L15.5342499,64.6145732 C17.153677,64.6145732 18.3682291,64.2765295 19.1779426,63.600432 C19.9876561,62.9243346 20.3925068,61.7224016 20.3925068,59.994597 L20.3925068,52.163174 C19.6016238,53.6280518 18.6695257,54.6985234 17.5961845,55.3746208 C16.5228433,56.0507183 15.1576491,56.3887619 13.5005609,56.3887619 C10.0357401,56.3887619 7.24886089,55.102318 5.13983956,52.5293916 C3.03081822,49.9564652 1.97632338,46.0407928 1.97632338,40.7822571 C1.97632338,35.7866481 3.09672415,32.0024372 5.33755932,29.4295108 C7.57839448,26.8565843 10.6383126,25.5701404 14.5174054,25.5701404 C15.948527,25.5701404 17.1724942,25.6358711 18.1893438,25.7673345 C19.2061934,25.8987979 20.1477066,26.1523307 21.0139118,26.5279404 C22.1437447,26.9035501 23.3488816,27.0913521 24.6293589,27.0913521 C25.7968528,27.0913521 26.8795931,26.9411105 27.8776121,26.6406227 C28.8756311,26.3401349 29.6382569,25.9457507 30.1655122,25.4574581 L30.9563912,26.0208698 C30.6927636,26.8096502 30.5609517,27.8425613 30.5609517,29.1196343 L30.5609517,60.5580087 C30.5609517,62.0980085 30.79633,63.1590899 31.2670937,63.741285 Z M19.1779426,52.3040269 C19.9876561,51.534027 20.3925068,50.5668466 20.3925068,49.4024565 L20.3925068,27.3167168 C19.6016238,26.9035461 18.7166014,26.6969639 17.7374129,26.6969639 C14.2725922,26.6969639 12.5402078,31.4483553 12.5402078,40.9512806 C12.5402078,45.5712799 12.8791525,48.8108649 13.5570522,50.6701329 C14.234952,52.5294009 15.157635,53.4590209 16.3251289,53.4590209 C17.4173007,53.4590209 18.3682291,53.0740268 19.1779426,52.3040269 Z" id="qc-copy-6" stroke="#177E89" stroke-width="0.783904803" fill="#177E89" stroke-linecap="round" stroke-linejoin="round"></path>
            <path d="M17.64884,53.4983854 C17.1569684,54.0476358 16.6256716,54.5029927 16.0542257,54.8629464 C14.8459278,55.6240531 13.3369204,55.9977071 11.5407989,55.9977071 C7.84381652,55.9977071 4.83352295,54.6081335 2.5738193,51.8513804 C0.333207287,49.1179183 -0.767343434,45.0312259 -0.767343434,39.6072975 C-0.767343434,34.4375043 0.406581134,30.4725141 2.78665766,27.7397107 C5.18217673,24.9891763 8.45963167,23.611276 12.5576434,23.611276 C14.020139,23.611276 15.2767594,23.6787603 16.3300924,23.8149404 C17.4183153,23.9556313 18.4309681,24.2283207 19.3014489,24.6091058 C20.3499976,24.9576928 21.4716666,25.1324877 22.6695969,25.1324877 C23.7626081,25.1324877 24.7693588,24.9927904 25.6918502,24.7150428 C26.5840898,24.4464036 27.2430405,24.1056338 27.6731042,23.7073506 L28.1410847,23.2739527 L29.9240298,24.5440991 L29.7401082,25.0943971 C29.5066411,25.7929364 29.3850945,26.7454062 29.3850945,27.9446747 L29.3850945,59.3830491 C29.3850945,60.7596713 29.5856539,61.6637896 29.9168926,62.0734336 C30.2165199,62.4439837 30.8122999,62.6557087 31.7647059,62.6557087 L32.5486107,62.6557087 L32.5486107,65.4361739 L31.7357693,65.4061487 C27.6788336,65.2562913 25.0853691,65.1813183 23.9688982,65.1813183 C22.6596932,65.1813183 19.7447127,65.2375873 15.2396807,65.3498786 L12.790583,65.4341058 L12.790583,62.6557087 L13.5744879,62.6557087 C15.0258184,62.6557087 16.0661491,62.3661558 16.7157512,61.8237487 C17.3172873,61.321476 17.64884,60.3371521 17.64884,58.8196374 L17.64884,53.4983854 Z M17.64884,26.6437315 C17.0820477,26.4188267 16.4601582,26.3059091 15.7776509,26.3059091 C12.9612399,26.3059091 11.3643506,30.6856798 11.3643506,39.776321 C11.3643506,44.3109972 11.6954999,47.4760745 12.3337693,49.2266488 C12.9113346,50.8107308 13.5956156,51.5001565 14.3653669,51.5001565 C15.2551595,51.5001565 16.0130695,51.1933081 16.677982,50.5610073 C17.3302309,49.9407489 17.64884,49.1795979 17.64884,48.2274969 L17.64884,26.6437315 Z" id="qc-copy-7" stroke="#024746" stroke-width="1.56780961" stroke-linejoin="round"></path>
            <g id="Group" transform="translate(32.156658, 24.282498)" stroke-linejoin="round">
                <path d="M20.9827799,2.14312632 C22.2809327,2.46271693 23.343897,2.86689899 24.1717046,3.35568463 C25.2252779,3.95726695 26.0530731,4.76563108 26.655115,5.78080125 C27.2571569,6.79597142 27.5581734,7.94272053 27.5581734,9.22108297 C27.5581734,10.8002366 27.0502081,12.1067786 26.0342624,13.1407482 C25.0183167,14.1747178 23.7201833,14.6916949 22.1398234,14.6916949 C20.5218358,14.6916949 19.2519227,14.2311153 18.330046,13.3099424 C17.4081694,12.3887695 16.9472379,11.1574241 16.9472379,9.61586939 C16.9472379,8.26230916 17.3893558,7.06856214 18.2736049,6.03459252 C19.1578539,5.0006229 20.2584452,4.31445336 21.5754119,3.9760633 C21.0109976,3.52487655 20.2584565,3.29928657 19.3177661,3.29928657 C16.9095985,3.29928657 15.216381,4.58702941 14.2380629,7.16255374 C13.2597449,9.73807807 12.7705932,12.7929425 12.7705932,16.3272386 C12.7705932,19.9367326 13.4478801,22.5122183 14.8024744,24.053773 C16.1570687,25.5953277 17.8314726,26.3660935 19.8257364,26.3660935 C22.5725525,26.3660935 24.8489893,25.1065494 26.655115,22.5874234 L27.6146145,22.9258118 C26.7868069,25.5577345 25.3851991,27.8136343 23.4097491,29.6935791 C21.4342992,31.5735239 18.9038798,32.5134821 15.818415,32.5134821 C11.7170046,32.5134821 8.42463734,31.2915364 5.94121451,28.8476082 C3.45779168,26.40368 2.21609889,22.4934535 2.21609889,17.1168115 C2.21609889,11.9657628 3.54245255,8.1025343 6.19519967,5.52700997 C8.84794678,2.95148565 12.3566696,1.6637428 16.7214734,1.6637428 C18.2642057,1.6637428 19.684627,1.82353571 20.9827799,2.14312632 Z" id="Path" stroke="#177E89" stroke-width="0.783904803" fill="#177E89" stroke-linecap="round"></path>
                <path d="M17.4997567,2.53229792 C17.4919821,2.53226244 17.4841877,2.53224469 17.4763737,2.53224469 C15.4091573,2.53224469 13.9969575,3.60626516 13.1294879,5.8899692 C12.1873273,8.37030526 11.7131056,11.3319284 11.7131056,14.776292 C11.7131056,18.2132792 12.3442418,20.6132697 13.5499437,21.985382 C14.7569086,23.3589316 16.2174291,24.031242 17.984344,24.031242 C20.468921,24.031242 22.5128153,22.9003628 24.1766415,20.5797117 L24.51951,20.1014897 L26.7482725,20.8875113 L26.521011,21.610064 C25.6534865,24.3682623 24.1806954,26.7387323 22.1087642,28.7104938 C19.9822705,30.7341799 17.2572099,31.7464403 13.9770227,31.7464403 C9.67842942,31.7464403 6.18722574,30.4506973 3.54997836,27.8553909 C0.895633801,25.2432592 -0.409198288,21.1342002 -0.409198288,15.5658648 C-0.409198288,10.2186656 0.986862803,6.15240247 3.80774966,3.41363304 C6.61408101,0.688995387 10.319967,-0.671108681 14.880081,-0.671108681 C16.4838592,-0.671108681 17.9669437,-0.50426636 19.3287807,-0.168997423 C20.6961912,0.167643636 21.8290271,0.598393713 22.7190141,1.1239901 C23.8896471,1.79241266 24.8161715,2.69718844 25.4879754,3.82999214 C26.163363,4.96883872 26.5006858,6.25390008 26.5006858,7.67013629 C26.5006858,9.45010139 25.9156073,10.9549871 24.7520266,12.139211 C23.5849608,13.3269817 22.0842035,13.924653 20.298431,13.924653 C18.4836933,13.924653 17.0131975,13.3913249 15.9345609,12.3135117 C14.85808,11.2378525 14.3219408,9.80559486 14.3219408,8.06492272 C14.3219408,6.52427457 14.8309525,5.1499098 15.8364555,3.97415552 C16.3292217,3.3979544 16.8844383,2.91684507 17.4997567,2.53229792 Z" id="Path" stroke="#024746" stroke-width="1.56780961"></path>
            </g>
            <g id="flag" transform="translate(27.845182, 0.000000)" stroke-width="1.56780961">
                <path d="M1.66579771,23.4991921 L1.66579771,3.52487881" id="Line-2" stroke="#024746" stroke-linecap="round"></path>
                <ellipse id="Oval-2" stroke="#024746" cx="1.76378581" cy="1.7624394" rx="1.76378581" ry="1.7624394"></ellipse>
                <path d="M5.27358641,8.10308571 C8.8968851,8.72191517 12.0215558,9.0313299 14.6475984,9.0313299 C17.0789633,9.0313299 20.922517,8.39678865 26.1782595,7.12770614 L26.1782403,7.12762666 C26.388706,7.07680637 26.6005202,7.20622456 26.6513405,7.41669029 C26.6891755,7.57337903 26.6272449,7.73725698 26.4952382,7.82976144 L20.4563937,12.0615162 C20.2791181,12.1857431 20.2361136,12.4301592 20.3603405,12.6074349 C20.3771671,12.631447 20.396635,12.6534951 20.4183787,12.6731655 L26.7752409,18.4238165 C26.935789,18.5690558 26.9481993,18.8169455 26.80296,18.9774936 C26.7602051,19.024755 26.7065718,19.0608795 26.6467064,19.0827373 C22.4615605,20.6108067 18.1257234,21.3748414 13.639195,21.3748414 C9.22881193,21.3748414 6.36792881,21.10107 5.05654569,20.5535273 L5.05656694,20.5534764 C4.91066931,20.4925596 4.81566562,20.3499404 4.81566562,20.1918361 L4.81577463,8.48933618 C4.81577463,8.27292704 4.99120889,8.09749278 5.20761802,8.09749278 C5.22972589,8.09749278 5.2517941,8.09936377 5.27358641,8.10308571 Z" id="Rectangle-11-Copy-2" stroke="#177E89" fill="#177E89" stroke-linecap="round" stroke-linejoin="round"></path>
                <path d="M2.44176841,5.20665384 C6.54201983,6.17428756 9.90892264,6.65810442 12.5424768,6.65810442 C15.0481951,6.65810442 18.984857,6.22011769 24.3524624,5.34414423 L24.3524675,5.34417492 C24.5660936,5.30931193 24.7675338,5.45422806 24.8023968,5.66785416 C24.8254328,5.80900941 24.7697479,5.95150514 24.657109,6.03964098 L17.7257623,11.4631644 C17.5552796,11.5965609 17.5252152,11.8429036 17.6586117,12.0133863 C17.6722798,12.0308543 17.6874059,12.0471307 17.7038272,12.06204 L24.212555,17.9714782 C24.3728257,18.1169924 24.3847883,18.3648801 24.2392741,18.5251509 C24.1957447,18.5730946 24.1410149,18.6095065 24.0799761,18.6311324 C20.0786475,20.0487906 15.840862,20.7576197 11.3666196,20.7576197 C6.7858291,20.7576197 3.69215522,20.0146289 2.08559798,18.5286475 L2.08557924,18.5286677 C2.00536708,18.4544757 1.95976201,18.3501712 1.95976201,18.2409079 L1.95963744,5.58824869 C1.95963744,5.37171056 2.13517628,5.19617172 2.35171441,5.19617172 C2.38203675,5.19617172 2.41225673,5.19968927 2.44176841,5.20665384 Z" id="Rectangle-11-Copy-2" stroke="#024746" stroke-linecap="round" stroke-linejoin="round"></path>
            </g>
        </g>
    </g>
</svg>