<svg width="48" height="48" viewBox="0 0 48 48" fill="none" xmlns="http://www.w3.org/2000/svg">
<path fill-rule="evenodd" clip-rule="evenodd" d="M24 48C37.2548 48 48 37.2548 48 24C48 10.7452 37.2548 0 24 0C10.7452 0 0 10.7452 0 24C0 37.2548 10.7452 48 24 48Z" fill="#CEE1D1"/>
<path fill-rule="evenodd" clip-rule="evenodd" d="M24.615 38.2649C24.8434 38.5471 25.241 38.6883 25.8076 38.6883V39.2619C23.8336 39.1891 22.5724 39.1527 22.024 39.1527C21.3843 39.1527 19.9678 39.18 17.7744 39.2346L16.9793 39.2619V38.6883C17.7652 38.6883 18.3547 38.5244 18.7477 38.1966C19.1407 37.8688 19.3372 37.286 19.3372 36.4483V32.6512C18.9533 33.3615 18.5009 33.8805 17.98 34.2083C17.4591 34.5361 16.7965 34.7 15.9923 34.7C14.3107 34.7 12.9581 34.0763 11.9345 32.8288C10.911 31.5813 10.3992 29.6828 10.3992 27.1332C10.3992 24.7111 10.9429 22.8763 12.0305 21.6289C13.118 20.3814 14.6031 19.7576 16.4858 19.7576C17.1803 19.7576 17.7744 19.7895 18.2679 19.8533C18.7614 19.917 19.2183 20.0399 19.6387 20.222C20.1871 20.4041 20.772 20.4952 21.3934 20.4952C21.9601 20.4952 22.4856 20.4224 22.9699 20.2767C23.4543 20.131 23.8244 19.9398 24.0803 19.703L24.4642 19.9762C24.3362 20.3586 24.2722 20.8594 24.2722 21.4786V36.7215C24.2722 37.4681 24.3865 37.9826 24.615 38.2649ZM18.7476 32.7195C19.1406 32.3462 19.3371 31.8773 19.3371 31.3127V20.6045C18.9533 20.4041 18.5237 20.304 18.0485 20.304C16.3669 20.304 15.5261 22.6077 15.5261 27.2152C15.5261 29.4552 15.6906 31.0259 16.0196 31.9273C16.3486 32.8288 16.7965 33.2795 17.3631 33.2795C17.8931 33.2795 18.3547 33.0929 18.7476 32.7195Z" fill="#177E89"/>
<path d="M24.615 38.2649L24.8083 38.1084L24.615 38.2649ZM25.8076 38.6883H26.0564C26.0564 38.5509 25.945 38.4395 25.8076 38.4395V38.6883ZM25.8076 39.2619L25.7984 39.5105C25.8659 39.513 25.9316 39.4879 25.9802 39.441C26.0289 39.3942 26.0564 39.3295 26.0564 39.2619H25.8076ZM17.7744 39.2346L17.7682 38.9859L17.7658 38.986L17.7744 39.2346ZM16.9793 39.2619H16.7305C16.7305 39.3294 16.7579 39.394 16.8064 39.4408C16.8549 39.4877 16.9204 39.5129 16.9878 39.5105L16.9793 39.2619ZM16.9793 38.6883V38.4395C16.8419 38.4395 16.7305 38.5509 16.7305 38.6883H16.9793ZM18.7477 38.1966L18.5883 38.0055L18.7477 38.1966ZM19.3372 32.6512H19.5859C19.5859 32.5373 19.5086 32.438 19.3982 32.4101C19.2877 32.3821 19.1725 32.4328 19.1183 32.533L19.3372 32.6512ZM17.98 34.2083L17.8475 33.9978L17.98 34.2083ZM12.0305 21.6289L12.218 21.7923L12.0305 21.6289ZM18.2679 19.8533L18.236 20.1L18.2679 19.8533ZM19.6387 20.222L19.5399 20.4503C19.5466 20.4532 19.5534 20.4558 19.5603 20.4581L19.6387 20.222ZM22.9699 20.2767L22.8983 20.0384L22.9699 20.2767ZM24.0803 19.703L24.2246 19.5003C24.1286 19.432 23.9979 19.4404 23.9114 19.5204L24.0803 19.703ZM24.4642 19.9762L24.7001 20.0551C24.7348 19.9513 24.6976 19.837 24.6084 19.7735L24.4642 19.9762ZM18.7476 32.7195L18.919 32.8999L18.7476 32.7195ZM19.3371 20.6045H19.5859C19.5859 20.5118 19.5344 20.4268 19.4522 20.3839L19.3371 20.6045ZM16.0196 31.9273L16.2533 31.8421L16.0196 31.9273ZM24.4216 38.4214C24.7187 38.7884 25.2082 38.937 25.8076 38.937V38.4395C25.2737 38.4395 24.9682 38.3059 24.8083 38.1084L24.4216 38.4214ZM25.5588 38.6883V39.2619H26.0564V38.6883H25.5588ZM25.8168 39.0133C23.8441 38.9405 22.5779 38.9039 22.024 38.9039V39.4014C22.5668 39.4014 23.823 39.4376 25.7984 39.5105L25.8168 39.0133ZM22.024 38.9039C21.3806 38.9039 19.9607 38.9313 17.7682 38.9859L17.7806 39.4833C19.9748 39.4286 21.388 39.4014 22.024 39.4014V38.9039ZM17.7658 38.986L16.9707 39.0133L16.9878 39.5105L17.7829 39.4832L17.7658 38.986ZM17.228 39.2619V38.6883H16.7305V39.2619H17.228ZM16.9793 38.937C17.7937 38.937 18.4508 38.7681 18.907 38.3876L18.5883 38.0055C18.2586 38.2806 17.7368 38.4395 16.9793 38.4395V38.937ZM18.907 38.3876C19.3845 37.9893 19.5859 37.3137 19.5859 36.4483H19.0884C19.0884 37.2583 18.8969 37.7482 18.5883 38.0055L18.907 38.3876ZM19.5859 36.4483V32.6512H19.0884V36.4483H19.5859ZM19.1183 32.533C18.7487 33.2169 18.3226 33.6988 17.8475 33.9978L18.1125 34.4188C18.6793 34.0622 19.158 33.506 19.556 32.7695L19.1183 32.533ZM17.8475 33.9978C17.3767 34.294 16.7637 34.4512 15.9923 34.4512V34.9488C16.8293 34.9488 17.5414 34.7782 18.1125 34.4188L17.8475 33.9978ZM15.9923 34.4512C14.3815 34.4512 13.1009 33.8582 12.1268 32.671L11.7422 32.9866C12.8153 34.2944 14.2398 34.9488 15.9923 34.9488V34.4512ZM12.1268 32.671C11.1557 31.4874 10.6479 29.6567 10.6479 27.1332H10.1504C10.1504 29.7089 10.6662 31.6752 11.7422 32.9866L12.1268 32.671ZM10.6479 27.1332C10.6479 24.744 11.1848 22.9775 12.218 21.7923L11.843 21.4654C10.7011 22.7752 10.1504 24.6783 10.1504 27.1332H10.6479ZM12.218 21.7923C13.2515 20.6068 14.664 20.0064 16.4858 20.0064V19.5089C14.5422 19.5089 12.9846 20.1559 11.843 21.4654L12.218 21.7923ZM16.4858 20.0064C17.1735 20.0064 17.7563 20.038 18.236 20.1L18.2998 19.6065C17.7925 19.541 17.1872 19.5089 16.4858 19.5089V20.0064ZM18.236 20.1C18.7084 20.161 19.1426 20.2782 19.5399 20.4503L19.7376 19.9938C19.2941 19.8016 18.8144 19.673 18.2998 19.6065L18.236 20.1ZM19.5603 20.4581C20.1358 20.6492 20.7474 20.744 21.3934 20.744V20.2464C20.7966 20.2464 20.2384 20.1591 19.7172 19.986L19.5603 20.4581ZM21.3934 20.744C21.9815 20.744 22.5314 20.6683 23.0416 20.5149L22.8983 20.0384C22.4397 20.1764 21.9387 20.2464 21.3934 20.2464V20.744ZM23.0416 20.5149C23.5471 20.3628 23.9559 20.157 24.2493 19.8856L23.9114 19.5204C23.6929 19.7225 23.3615 19.8991 22.8983 20.0384L23.0416 20.5149ZM23.9361 19.9057L24.3199 20.1789L24.6084 19.7735L24.2246 19.5003L23.9361 19.9057ZM24.2283 19.8973C24.0885 20.3149 24.0235 20.8454 24.0235 21.4786H24.521C24.521 20.8735 24.5839 20.4023 24.7001 20.0551L24.2283 19.8973ZM24.0235 21.4786V36.7215H24.521V21.4786H24.0235ZM24.0235 36.7215C24.0235 37.475 24.135 38.0673 24.4216 38.4214L24.8083 38.1084C24.6379 37.8979 24.521 37.4612 24.521 36.7215H24.0235ZM18.919 32.8999C19.3637 32.4774 19.5859 31.9423 19.5859 31.3127H19.0884C19.0884 31.8123 18.9176 32.215 18.5763 32.5392L18.919 32.8999ZM19.5859 31.3127V20.6045H19.0884V31.3127H19.5859ZM19.4522 20.3839C19.0295 20.1633 18.5598 20.0552 18.0485 20.0552V20.5527C18.4877 20.5527 18.8771 20.645 19.222 20.825L19.4522 20.3839ZM18.0485 20.0552C17.565 20.0552 17.1375 20.2231 16.7772 20.5522C16.4223 20.8764 16.1414 21.3482 15.923 21.9465C15.4874 23.1401 15.2774 24.9033 15.2774 27.2152H15.7749C15.7749 24.9196 15.9853 23.2271 16.3904 22.1171C16.5925 21.5634 16.8371 21.1714 17.1127 20.9196C17.383 20.6728 17.6913 20.5527 18.0485 20.5527V20.0552ZM15.2774 27.2152C15.2774 29.4557 15.4405 31.066 15.786 32.0126L16.2533 31.8421C15.9408 30.9858 15.7749 29.4546 15.7749 27.2152H15.2774ZM15.786 32.0126C16.123 32.9362 16.6294 33.5283 17.3631 33.5283V33.0308C16.9635 33.0308 16.5742 32.7214 16.2533 31.8421L15.786 32.0126ZM17.3631 33.5283C17.9585 33.5283 18.4809 33.316 18.919 32.8999L18.5763 32.5392C18.2284 32.8697 17.8278 33.0308 17.3631 33.0308V33.5283Z" fill="#177E89"/>
<mask id="path-4-outside-1" maskUnits="userSpaceOnUse" x="8.448" y="18.1333" width="18" height="22" fill="black">
<rect fill="white" x="8.448" y="18.1333" width="18" height="22"/>
<path fill-rule="evenodd" clip-rule="evenodd" d="M23.6638 37.6952C23.8923 37.9775 24.2898 38.1186 24.8564 38.1186V38.6923C22.8824 38.6194 21.6212 38.583 21.0729 38.583C20.4331 38.583 19.0166 38.6103 16.8232 38.6649L16.0281 38.6923V38.1186C16.8141 38.1186 17.4035 37.9547 17.7965 37.6269C18.1895 37.2991 18.386 36.7163 18.386 35.8786V32.0816C18.0021 32.7918 17.5498 33.3108 17.0288 33.6386C16.5079 33.9664 15.8453 34.1303 15.0411 34.1303C13.3595 34.1303 12.0069 33.5066 10.9834 32.2591C9.95978 31.0116 9.448 29.1131 9.448 26.5635C9.448 24.1414 9.99177 22.3067 11.0793 21.0592C12.1669 19.8117 13.652 19.188 15.5346 19.188C16.2292 19.188 16.8232 19.2198 17.3167 19.2836C17.8102 19.3473 18.2672 19.4702 18.6876 19.6524C19.2359 19.8345 19.8208 19.9255 20.4423 19.9255C21.0089 19.9255 21.5344 19.8527 22.0188 19.707C22.5031 19.5613 22.8733 19.3701 23.1292 19.1333L23.513 19.4065C23.385 19.7889 23.3211 20.2897 23.3211 20.9089V36.1518C23.3211 36.8984 23.4353 37.4129 23.6638 37.6952ZM17.7965 32.1499C18.1895 31.7765 18.386 31.3076 18.386 30.743V20.0348C18.0021 19.8345 17.5726 19.7343 17.0974 19.7343C15.4158 19.7343 14.575 22.038 14.575 26.6455C14.575 28.8855 14.7395 30.4562 15.0685 31.3577C15.3975 32.2591 15.8453 32.7098 16.4119 32.7098C16.942 32.7098 17.4035 32.5232 17.7965 32.1499Z"/>
</mask>
<path d="M24.8564 38.1186H25.8515C25.8515 37.5691 25.406 37.1236 24.8564 37.1236V38.1186ZM24.8564 38.6923L24.8197 39.6866C25.0898 39.6966 25.3523 39.5963 25.5469 39.4087C25.7415 39.2212 25.8515 38.9625 25.8515 38.6923H24.8564ZM16.8232 38.6649L16.7984 37.6702L16.789 37.6705L16.8232 38.6649ZM16.0281 38.6923H15.0331C15.0331 38.9621 15.1427 39.2203 15.3367 39.4078C15.5307 39.5953 15.7926 39.696 16.0623 39.6867L16.0281 38.6923ZM16.0281 38.1186V37.1236C15.4786 37.1236 15.0331 37.5691 15.0331 38.1186H16.0281ZM17.7965 37.6269L18.4339 38.391H18.4339L17.7965 37.6269ZM18.386 32.0816H19.381C19.381 31.626 19.0716 31.2286 18.63 31.1169C18.1883 31.0052 17.7272 31.2077 17.5106 31.6085L18.386 32.0816ZM17.0288 33.6386L16.4989 32.7965H16.4989L17.0288 33.6386ZM10.9834 32.2591L10.2141 32.8903L10.9834 32.2591ZM11.0793 21.0592L11.8293 21.7131V21.7131L11.0793 21.0592ZM17.3167 19.2836L17.4442 18.2967L17.3167 19.2836ZM18.6876 19.6524L18.292 20.5654C18.3189 20.577 18.3462 20.5875 18.374 20.5967L18.6876 19.6524ZM22.0188 19.707L22.3054 20.6599L22.3054 20.6599L22.0188 19.707ZM23.1292 19.1333L23.7061 18.3226C23.3222 18.0494 22.7993 18.0829 22.4534 18.4029L23.1292 19.1333ZM23.513 19.4065L24.4566 19.7222C24.5955 19.307 24.4467 18.8497 24.0899 18.5958L23.513 19.4065ZM17.7965 32.1499L17.1112 31.4285L17.1112 31.4285L17.7965 32.1499ZM18.386 20.0348H19.381C19.381 19.6641 19.175 19.3242 18.8464 19.1527L18.386 20.0348ZM15.0685 31.3577L14.1338 31.6988L15.0685 31.3577ZM22.8904 38.3212C23.3933 38.9426 24.1588 39.1136 24.8564 39.1136V37.1236C24.6501 37.1236 24.5284 37.0971 24.4662 37.0751C24.4118 37.0557 24.4185 37.0461 24.4372 37.0692L22.8904 38.3212ZM23.8614 38.1186V38.6923H25.8515V38.1186H23.8614ZM24.8931 37.6979C22.9246 37.6253 21.6434 37.5879 21.0729 37.5879V39.578C21.5991 39.578 22.8402 39.6136 24.8197 39.6866L24.8931 37.6979ZM21.0729 37.5879C20.4183 37.5879 18.9885 37.6157 16.7984 37.6702L16.848 39.6597C19.0447 39.6049 20.448 39.578 21.0729 39.578V37.5879ZM16.789 37.6705L15.9939 37.6978L16.0623 39.6867L16.8574 39.6594L16.789 37.6705ZM17.0231 38.6923V38.1186H15.0331V38.6923H17.0231ZM16.0281 39.1136C16.9279 39.1136 17.788 38.9297 18.4339 38.391L17.1591 36.8628C17.019 36.9797 16.7002 37.1236 16.0281 37.1236V39.1136ZM18.4339 38.391C19.1647 37.7814 19.381 36.8271 19.381 35.8786H17.3909C17.3909 36.6056 17.2143 36.8168 17.1591 36.8628L18.4339 38.391ZM19.381 35.8786V32.0816H17.3909V35.8786H19.381ZM17.5106 31.6085C17.1836 32.2136 16.8365 32.584 16.4989 32.7965L17.5588 34.4808C18.263 34.0376 18.8207 33.37 19.2614 32.5546L17.5106 31.6085ZM16.4989 32.7965C16.1785 32.9981 15.7142 33.1353 15.0411 33.1353V35.1254C15.9764 35.1254 16.8373 34.9348 17.5588 34.4808L16.4989 32.7965ZM15.0411 33.1353C13.643 33.1353 12.5782 32.6341 11.7526 31.6279L10.2141 32.8903C11.4357 34.3791 13.076 35.1254 15.0411 35.1254V33.1353ZM11.7526 31.6279C10.9386 30.6359 10.443 29.0086 10.443 26.5635H8.45296C8.45296 29.2177 8.98093 31.3873 10.2141 32.8903L11.7526 31.6279ZM10.443 26.5635C10.443 24.2728 10.9591 22.7113 11.8293 21.7131L10.3293 20.4053C9.02444 21.902 8.45296 24.01 8.45296 26.5635H10.443ZM11.8293 21.7131C12.7008 20.7134 13.8955 20.183 15.5346 20.183V18.1929C13.4084 18.1929 11.6329 18.91 10.3293 20.4053L11.8293 21.7131ZM15.5346 20.183C16.2018 20.183 16.7509 20.2138 17.1893 20.2704L17.4442 18.2967C16.8955 18.2259 16.2565 18.1929 15.5346 18.1929V20.183ZM17.1893 20.2704C17.5983 20.3232 17.9641 20.4233 18.292 20.5654L19.0831 18.7393C18.5702 18.5171 18.0222 18.3714 17.4442 18.2967L17.1893 20.2704ZM18.374 20.5967C19.0308 20.8148 19.7223 20.9206 20.4423 20.9206V18.9305C19.9193 18.9305 19.441 18.8541 19.0012 18.708L18.374 20.5967ZM20.4423 20.9206C21.0945 20.9206 21.7176 20.8366 22.3054 20.6599L21.7322 18.7541C21.3512 18.8687 20.9233 18.9305 20.4423 18.9305V20.9206ZM22.3054 20.6599C22.8742 20.4888 23.3993 20.2389 23.8049 19.8637L22.4534 18.4029C22.3472 18.5012 22.1321 18.6338 21.7322 18.7541L22.3054 20.6599ZM22.5522 19.944L22.936 20.2172L24.0899 18.5958L23.7061 18.3226L22.5522 19.944ZM22.5694 19.0908C22.3943 19.6142 22.326 20.2335 22.326 20.9089H24.3161C24.3161 20.346 24.3758 19.9637 24.4566 19.7222L22.5694 19.0908ZM22.326 20.9089V36.1518H24.3161V20.9089H22.326ZM22.326 36.1518C22.326 36.926 22.4295 37.7518 22.8904 38.3212L24.4372 37.0692C24.4535 37.0893 24.4158 37.0518 24.3781 36.8819C24.3417 36.718 24.3161 36.48 24.3161 36.1518H22.326ZM18.4818 32.8713C19.0816 32.3015 19.381 31.5676 19.381 30.743H17.3909C17.3909 31.0476 17.2974 31.2516 17.1112 31.4285L18.4818 32.8713ZM19.381 30.743V20.0348H17.3909V30.743H19.381ZM18.8464 19.1527C18.3069 18.8711 17.717 18.7393 17.0974 18.7393V20.7293C17.4282 20.7293 17.6974 20.7978 17.9256 20.9169L18.8464 19.1527ZM17.0974 18.7393C16.4244 18.7393 15.8183 18.979 15.3228 19.4315C14.849 19.8643 14.5136 20.4557 14.2709 21.1209C13.7895 22.4399 13.58 24.3091 13.58 26.6455H15.57C15.57 24.3744 15.7809 22.788 16.1403 21.8032C16.3179 21.3166 16.5081 21.0441 16.6649 20.901C16.8 20.7776 16.9296 20.7293 17.0974 20.7293V18.7393ZM13.58 26.6455C13.58 28.8878 13.7388 30.6166 14.1338 31.6988L16.0032 31.0165C15.7402 30.2958 15.57 28.8832 15.57 26.6455H13.58ZM14.1338 31.6988C14.4951 32.6889 15.177 33.7049 16.4119 33.7049V31.7148C16.4075 31.7148 16.4071 31.7144 16.4094 31.7149C16.4117 31.7154 16.4133 31.716 16.4133 31.716C16.4131 31.7159 16.4085 31.7139 16.3995 31.7076C16.3904 31.7011 16.376 31.6896 16.357 31.6705C16.2729 31.5858 16.1413 31.3947 16.0032 31.0165L14.1338 31.6988ZM16.4119 33.7049C17.2034 33.7049 17.9086 33.4159 18.4818 32.8713L17.1112 31.4285C16.8985 31.6305 16.6806 31.7148 16.4119 31.7148V33.7049Z" fill="#024746" mask="url(#path-4-outside-1)"/>
<path fill-rule="evenodd" clip-rule="evenodd" d="M35.2303 20.1724C35.8603 20.3274 36.3762 20.5233 36.778 20.7603C37.2893 21.052 37.6911 21.4439 37.9833 21.9361C38.2755 22.4284 38.4215 22.9844 38.4215 23.6042C38.4215 24.3698 38.175 25.0033 37.6819 25.5046C37.1889 26.0059 36.5588 26.2566 35.7918 26.2566C35.0066 26.2566 34.3902 26.0333 33.9428 25.5866C33.4954 25.14 33.2717 24.543 33.2717 23.7956C33.2717 23.1393 33.4863 22.5605 33.9154 22.0592C34.3446 21.5579 34.8787 21.2252 35.5179 21.0611C35.244 20.8424 34.8787 20.733 34.4222 20.733C33.2534 20.733 32.4317 21.3573 31.9569 22.6061C31.482 23.8548 31.2446 25.336 31.2446 27.0496C31.2446 28.7996 31.5733 30.0484 32.2308 30.7958C32.8882 31.5432 33.7009 31.9169 34.6687 31.9169C36.0019 31.9169 37.1067 31.3062 37.9833 30.0848L38.4489 30.2489C38.0472 31.525 37.3669 32.6187 36.4082 33.5302C35.4494 34.4417 34.2213 34.8974 32.7238 34.8974C30.7333 34.8974 29.1354 34.305 27.9301 33.1201C26.7248 31.9351 26.1222 30.0393 26.1222 27.4324C26.1222 24.9349 26.7659 23.0618 28.0534 21.8131C29.3408 20.5644 31.0437 19.94 33.1621 19.94C33.9109 19.94 34.6003 20.0175 35.2303 20.1724Z" fill="#177E89" stroke="#177E89" stroke-width="0.497518" stroke-linecap="round" stroke-linejoin="round"/>
<path d="M32.3366 20.8454C32.5594 20.6762 32.8202 20.562 33.1291 20.5102C32.9558 20.6504 32.794 20.8083 32.6438 20.9837C32.138 21.5746 31.8805 22.268 31.8805 23.0436C31.8805 23.8972 32.1399 24.63 32.6977 25.1868C33.2598 25.7479 34.0149 26.0021 34.8982 26.0021C35.7852 26.0021 36.5474 25.707 37.143 25.1015C37.7361 24.4984 38.0254 23.7356 38.0254 22.8522C38.0254 22.1507 37.859 21.5056 37.5174 20.9302C37.1805 20.3628 36.7164 19.9109 36.134 19.578C35.6782 19.3098 35.1141 19.0993 34.4554 18.9373C33.7811 18.7715 33.0512 18.6905 32.2685 18.6905C30.0458 18.6905 28.2102 19.3492 26.8133 20.704C25.3964 22.0783 24.731 24.1023 24.731 26.6804C24.731 29.3498 25.3464 31.4043 26.6876 32.7229C28.0023 34.0154 29.734 34.643 31.8302 34.643C33.437 34.643 34.7937 34.15 35.8573 33.1388C36.8779 32.1686 37.603 31.0019 38.0298 29.6463C38.1104 29.3905 37.9736 29.1168 37.7206 29.0277L37.2549 28.8636C37.0463 28.7901 36.8143 28.8631 36.6854 29.0428C35.8885 30.1531 34.9256 30.6674 33.7751 30.6674C32.9548 30.6674 32.2767 30.3587 31.7107 29.7152C31.1748 29.106 30.8485 28.0098 30.8485 26.2976C30.8485 24.6281 31.08 23.2097 31.5282 22.0309C31.7421 21.4684 32.0187 21.087 32.3366 20.8454Z" stroke="#024746" stroke-width="0.995036" stroke-linejoin="round"/>
<path d="M23.7626 18.7535V9.06903" stroke="#024746" stroke-width="0.995036" stroke-linecap="round"/>
<path fill-rule="evenodd" clip-rule="evenodd" d="M23.8101 9.06903C24.2829 9.06903 24.6661 8.68645 24.6661 8.21452C24.6661 7.74258 24.2829 7.36 23.8101 7.36C23.3374 7.36 22.9541 7.74258 22.9541 8.21452C22.9541 8.68645 23.3374 9.06903 23.8101 9.06903Z" stroke="#024746" stroke-width="0.995036"/>
<path fill-rule="evenodd" clip-rule="evenodd" d="M25.2914 11.5466C25.2914 11.392 25.4299 11.2742 25.5825 11.2988C26.3465 11.4224 28.46 11.7388 30.0631 11.7388C31.3743 11.7388 33.8137 11.2324 35.3278 10.8862C35.5974 10.8246 35.7626 11.1916 35.5361 11.3502L32.9428 13.1657C32.8119 13.2573 32.8001 13.4469 32.9186 13.554L35.8802 16.2305C36.0179 16.3549 35.9764 16.5773 35.8006 16.6366C34.8579 16.9539 32.2918 17.7236 29.5737 17.7236C26.8943 17.7236 25.786 17.4462 25.4307 17.3256C25.3433 17.2959 25.2914 17.2129 25.2914 17.1207V11.5466Z" fill="#177E89" stroke="#177E89" stroke-width="0.995036" stroke-linecap="round" stroke-linejoin="round"/>
<path fill-rule="evenodd" clip-rule="evenodd" d="M23.9053 11.8036C23.9053 10.7973 24.8481 10.0503 25.8385 10.2288C26.853 10.4116 28.0811 10.5882 29.0414 10.5882C29.6858 10.5882 30.59 10.5087 31.5187 10.4011C32.57 10.2794 33.1667 11.6597 32.3328 12.3115V12.3115C31.8347 12.7008 31.8075 13.4451 32.2758 13.8698L33.0493 14.5714C33.9116 15.3535 33.622 16.7243 32.4839 16.9694C31.3609 17.2113 29.9514 17.4243 28.4707 17.4243C26.3228 17.4243 25.0732 16.976 24.44 16.6418C24.0749 16.4491 23.9053 16.053 23.9053 15.6401V11.8036Z" stroke="#024746" stroke-width="0.995036" stroke-linecap="round" stroke-linejoin="round"/>
</svg>
