<svg width="83" height="41" viewBox="0 0 83 41" fill="none" xmlns="http://www.w3.org/2000/svg">
<path fill-rule="evenodd" clip-rule="evenodd" d="M12.5902 27.8423C12.7902 28.0903 13.1382 28.2143 13.6342 28.2143V28.7183C11.9062 28.6543 10.8022 28.6223 10.3222 28.6223C9.76224 28.6223 8.52225 28.6463 6.60224 28.6943L5.90624 28.7183V28.2143C6.59424 28.2143 7.11024 28.0703 7.45424 27.7823C7.79824 27.4943 7.97024 26.9823 7.97024 26.2463V22.9103C7.63424 23.5343 7.23824 23.9903 6.78224 24.2783C6.32624 24.5663 5.74624 24.7103 5.04224 24.7103C3.57023 24.7103 2.38624 24.1623 1.49024 23.0663C0.594236 21.9703 0.14624 20.3023 0.14624 18.0623C0.14624 15.9343 0.622235 14.3223 1.57424 13.2263C2.52624 12.1303 3.82623 11.5823 5.47424 11.5823C6.08224 11.5823 6.60224 11.6103 7.03424 11.6663C7.46624 11.7223 7.86624 11.8303 8.23424 11.9903C8.71424 12.1503 9.22624 12.2303 9.77024 12.2303C10.2662 12.2303 10.7262 12.1663 11.1502 12.0383C11.5322 11.923 11.5629 11.8465 11.7826 11.6663C11.8068 11.6465 12.1 11.5549 12.1222 11.5343L12.2902 11.9091C12.2902 12.2303 12.2902 12.5503 12.2902 13.0943V26.4863C12.2902 27.1423 12.3902 27.5943 12.5902 27.8423ZM7.45424 22.9703C7.79824 22.6423 7.97024 22.2303 7.97024 21.7343V12.3263C7.63424 12.1503 7.25824 12.0623 6.84224 12.0623C5.37023 12.0623 4.63424 14.0863 4.63424 18.1343C4.63424 20.1023 4.77824 21.4823 5.06624 22.2743C5.35424 23.0663 5.74624 23.4623 6.24224 23.4623C6.70624 23.4623 7.11024 23.2983 7.45424 22.9703ZM26.227 21.7583C26.227 22.4943 26.327 23.0303 26.527 23.3663C26.727 23.7023 27.075 23.8703 27.571 23.8703V24.3743C27.075 24.3263 26.579 24.3023 26.083 24.3023C24.419 24.3023 23.027 24.4143 21.907 24.6383V22.9103C21.187 24.1103 19.915 24.7103 18.091 24.7103C16.811 24.7103 15.907 24.3903 15.379 23.7503C15.139 23.4623 14.963 23.0743 14.851 22.5863C14.739 22.0983 14.683 21.4543 14.683 20.6543V14.5343C14.683 13.7983 14.583 13.2623 14.383 12.9263C14.183 12.5903 13.835 12.4223 13.339 12.4223V11.9183C13.835 11.9663 14.331 11.9903 14.827 11.9903C16.491 11.9903 17.883 11.8783 19.003 11.6543V21.9503C19.003 22.4623 19.095 22.8423 19.279 23.0903C19.463 23.3383 19.763 23.4623 20.179 23.4623C20.643 23.4623 21.047 23.2983 21.391 22.9703C21.735 22.6423 21.907 22.2303 21.907 21.7343V14.5343C21.907 13.7983 21.807 13.2623 21.607 12.9263C21.407 12.5903 21.059 12.4223 20.563 12.4223V11.9183C21.059 11.9663 21.555 11.9903 22.051 11.9903C23.715 11.9903 25.107 11.8783 26.227 11.6543V21.7583ZM28.3413 23.7143C27.8213 23.1623 27.5613 22.4703 27.5613 21.6383C27.5613 20.9183 27.7493 20.3223 28.1253 19.8503C28.5013 19.3783 28.9453 19.0143 29.4573 18.7583C29.9693 18.5023 30.6333 18.2383 31.4493 17.9663C32.3133 17.6783 32.9453 17.4143 33.3453 17.1743C33.7453 16.9343 33.9453 16.5983 33.9453 16.1663V14.0303C33.9453 13.5183 33.8173 13.0623 33.5613 12.6623C33.3053 12.2623 32.8653 12.0623 32.2413 12.0623C31.7453 12.0623 31.2973 12.1983 30.8973 12.4703C31.4413 12.6623 31.8453 12.9463 32.1093 13.3223C32.3733 13.6983 32.5053 14.1183 32.5053 14.5823C32.5053 15.2063 32.2853 15.7063 31.8453 16.0823C31.4053 16.4583 30.8733 16.6463 30.2493 16.6463C29.6253 16.6463 29.1333 16.4503 28.7733 16.0583C28.4133 15.6663 28.2333 15.1663 28.2333 14.5583C28.2333 14.0783 28.3533 13.6623 28.5933 13.3103C28.8333 12.9583 29.2093 12.6383 29.7213 12.3503C30.6173 11.8383 31.8973 11.5823 33.5613 11.5823C34.4413 11.5823 35.2013 11.6663 35.8413 11.8343C36.4813 12.0023 37.0253 12.3183 37.4733 12.7823C37.7933 13.1183 38.0053 13.5383 38.1093 14.0423C38.2133 14.5463 38.2653 15.2463 38.2653 16.1423V22.5743C38.2653 22.9743 38.2933 23.2463 38.3493 23.3903C38.4053 23.5343 38.5053 23.6063 38.6493 23.6063C38.7613 23.6063 38.8813 23.5703 39.0093 23.4983C39.1373 23.4263 39.2573 23.3423 39.3693 23.2463L39.6093 23.6543C38.9213 24.2463 37.9373 24.5423 36.6573 24.5423C35.6973 24.5423 35.0253 24.3783 34.6413 24.0503C34.2573 23.7223 34.0493 23.2783 34.0173 22.7183C33.2653 23.9343 32.1453 24.5423 30.6573 24.5423C29.6333 24.5423 28.8613 24.2663 28.3413 23.7143ZM33.9453 22.2143V17.1503C33.8013 17.3903 33.5373 17.7023 33.1533 18.0863C32.7213 18.5023 32.3933 18.9063 32.1693 19.2983C31.9453 19.6903 31.8333 20.2223 31.8333 20.8943C31.8333 22.0463 32.2413 22.6223 33.0573 22.6223C33.3933 22.6223 33.6893 22.4863 33.9453 22.2143ZM50.006 12.3023C50.35 12.7823 50.522 13.3503 50.522 14.0063C50.522 14.7263 50.318 15.2983 49.91 15.7223C49.502 16.1463 48.97 16.3583 48.314 16.3583C47.626 16.3583 47.098 16.2023 46.73 15.8903C46.362 15.5783 46.178 15.1583 46.178 14.6303C46.178 13.6863 46.586 12.9423 47.402 12.3983C47.114 12.3983 46.858 12.4543 46.634 12.5663C46.234 12.7423 45.898 13.0263 45.626 13.4183C45.354 13.8103 45.218 14.2383 45.218 14.7023V21.9023C45.218 22.6543 45.374 23.1703 45.686 23.4503C45.998 23.7303 46.53 23.8703 47.282 23.8703V24.3743C47.074 24.3743 46.898 24.3663 46.754 24.3503C45.074 24.3023 43.954 24.2783 43.394 24.2783C42.898 24.2783 41.786 24.3023 40.058 24.3503C39.93 24.3663 39.762 24.3743 39.554 24.3743V23.8703C40.05 23.8703 40.398 23.7463 40.598 23.4983C40.798 23.2503 40.898 22.7983 40.898 22.1423V14.5343C40.898 13.7983 40.798 13.2623 40.598 12.9263C40.398 12.5903 40.05 12.4223 39.554 12.4223V11.9183C40.066 11.9663 40.562 11.9903 41.042 11.9903C42.706 11.9903 44.098 11.8783 45.218 11.6543V13.3823C45.826 12.1823 46.858 11.5823 48.314 11.5823C49.098 11.5823 49.662 11.8223 50.006 12.3023ZM56.642 11.9183H58.994V12.3983H56.642V22.3583C56.642 22.6783 56.698 22.9023 56.81 23.0303C56.922 23.1583 57.106 23.2223 57.362 23.2223C57.554 23.2223 57.77 23.1663 58.01 23.0543C58.25 22.9423 58.466 22.7663 58.658 22.5263L59.018 22.8143C58.282 24.0783 57.146 24.7103 55.61 24.7103C54.506 24.7103 53.682 24.4383 53.138 23.8943C52.802 23.5583 52.582 23.1423 52.478 22.6463C52.374 22.1503 52.322 21.4543 52.322 20.5583V12.3983H50.498V11.9183H52.322V9.0863C53.186 9.0863 53.966 9.0023 54.662 8.8343C55.358 8.6663 56.018 8.39831 56.642 8.0303V11.9183ZM69.89 20.4863L70.298 20.6303C69.946 21.7503 69.35 22.7103 68.51 23.5103C67.67 24.3103 66.594 24.7103 65.282 24.7103C63.602 24.7103 62.258 24.1903 61.25 23.1503C60.242 22.1103 59.738 20.4463 59.738 18.1583C59.738 15.9663 60.302 14.3223 61.43 13.2263C62.558 12.1303 64.05 11.5823 65.906 11.5823C68.93 11.5823 70.442 13.3743 70.442 16.9583H64.25C64.234 17.1503 64.226 17.4383 64.226 17.8223C64.226 19.3583 64.494 20.4543 65.03 21.1103C65.566 21.7663 66.218 22.0943 66.986 22.0943C68.154 22.0943 69.122 21.5583 69.89 20.4863ZM64.154 16.5023H66.938C66.954 15.2223 66.862 14.1743 66.662 13.3583C66.462 12.5423 66.154 12.1343 65.738 12.1343C64.842 12.1343 64.314 13.5903 64.154 16.5023ZM81.7796 12.3023C82.1236 12.7823 82.2956 13.3503 82.2956 14.0063C82.2956 14.7263 82.0916 15.2983 81.6836 15.7223C81.2756 16.1463 80.7436 16.3583 80.0876 16.3583C79.3996 16.3583 78.8716 16.2023 78.5036 15.8903C78.1356 15.5783 77.9516 15.1583 77.9516 14.6303C77.9516 13.6863 78.3596 12.9423 79.1756 12.3983C78.8876 12.3983 78.6316 12.4543 78.4076 12.5663C78.0076 12.7423 77.6716 13.0263 77.3996 13.4183C77.1276 13.8103 76.9916 14.2383 76.9916 14.7023V21.9023C76.9916 22.6543 77.1476 23.1703 77.4596 23.4503C77.7716 23.7303 78.3036 23.8703 79.0556 23.8703V24.3743C78.8476 24.3743 78.6716 24.3663 78.5276 24.3503C76.8476 24.3023 75.7276 24.2783 75.1676 24.2783C74.6716 24.2783 73.5596 24.3023 71.8316 24.3503C71.7036 24.3663 71.5356 24.3743 71.3276 24.3743V23.8703C71.8236 23.8703 72.1716 23.7463 72.3716 23.4983C72.5716 23.2503 72.6716 22.7983 72.6716 22.1423V14.5343C72.6716 13.7983 72.5716 13.2623 72.3716 12.9263C72.1716 12.5903 71.8236 12.4223 71.3276 12.4223V11.9183C71.8396 11.9663 72.3356 11.9903 72.8156 11.9903C74.4796 11.9903 75.8716 11.8783 76.9916 11.6543V13.3823C77.5996 12.1823 78.6316 11.5823 80.0876 11.5823C80.8716 11.5823 81.4356 11.8223 81.7796 12.3023Z" fill="#024746"/>
<path d="M11.7825 11.9091V2.69696" stroke="#024746" stroke-width="0.969697" stroke-linecap="round"/>
<path fill-rule="evenodd" clip-rule="evenodd" d="M11.8476 2.60121C12.2852 2.60121 12.64 2.24277 12.64 1.8006C12.64 1.35844 12.2852 1 11.8476 1C11.41 1 11.0552 1.35844 11.0552 1.8006C11.0552 2.24277 11.41 2.60121 11.8476 2.60121Z" fill="#024746" stroke="#024746" stroke-width="0.704368"/>
<path fill-rule="evenodd" clip-rule="evenodd" d="M12.0249 3.23064C12.0249 3.08805 12.1931 2.99298 12.322 3.05389C12.8421 3.29962 14.074 3.73808 16.2423 3.73808C18.5163 3.73808 20.8066 3.25585 21.7929 3.01942C21.9566 2.98017 22.0843 3.17243 21.9829 3.30685L19.2539 6.9248C19.1967 7.00055 19.2099 7.10794 19.2836 7.16767L21.9369 9.31736C22.0888 9.44038 22.0407 9.67908 21.8511 9.72667C20.9235 9.95953 18.6665 10.4545 16.2423 10.4545C13.5287 10.4545 12.3703 9.83422 12.0932 9.65574C12.0484 9.62693 12.0249 9.57731 12.0249 9.5241L12.0249 3.23064Z" fill="#024746"/>
<path fill-rule="evenodd" clip-rule="evenodd" d="M26.7927 27.9272C27.3447 28.0632 27.7967 28.2352 28.1487 28.4432C28.5967 28.6992 28.9487 29.0432 29.2047 29.4752C29.4607 29.9072 29.5887 30.3952 29.5887 30.9392C29.5887 31.6113 29.3727 32.1672 28.9407 32.6072C28.5087 33.0472 27.9567 33.2672 27.2847 33.2672C26.5967 33.2672 26.0567 33.0712 25.6647 32.6792C25.2727 32.2872 25.0767 31.7633 25.0767 31.1072C25.0767 30.5312 25.2647 30.0232 25.6407 29.5832C26.0167 29.1432 26.4847 28.8512 27.0447 28.7072C26.8047 28.5152 26.4847 28.4192 26.0847 28.4192C25.0607 28.4192 24.3407 28.9672 23.9247 30.0632C23.5087 31.1593 23.3007 32.4592 23.3007 33.9632C23.3007 35.4993 23.5887 36.5952 24.1647 37.2512C24.7407 37.9073 25.4527 38.2352 26.3007 38.2352C27.4688 38.2352 28.4367 37.6993 29.2047 36.6272L29.6127 36.7712C29.2607 37.8913 28.6647 38.8512 27.8247 39.6512C26.9847 40.4513 25.9088 40.8512 24.5967 40.8512C22.8527 40.8512 21.4527 40.3313 20.3967 39.2912C19.3407 38.2512 18.8127 36.5873 18.8127 34.2992C18.8127 32.1072 19.3767 30.4633 20.5047 29.3672C21.6327 28.2712 23.1247 27.7232 24.9807 27.7232C25.6367 27.7232 26.2407 27.7912 26.7927 27.9272ZM30.9879 39.8552C30.4679 39.3032 30.2079 38.6113 30.2079 37.7792C30.2079 37.0592 30.3959 36.4632 30.7719 35.9912C31.1479 35.5192 31.5919 35.1552 32.1039 34.8992C32.6159 34.6432 33.2799 34.3792 34.0959 34.1072C34.9599 33.8192 35.5919 33.5552 35.9919 33.3152C36.3919 33.0752 36.5919 32.7392 36.5919 32.3072V30.1712C36.5919 29.6592 36.4639 29.2032 36.2079 28.8032C35.9519 28.4032 35.5119 28.2032 34.8879 28.2032C34.3919 28.2032 33.9439 28.3392 33.5439 28.6112C34.0879 28.8032 34.4919 29.0872 34.7559 29.4632C35.0199 29.8392 35.1519 30.2592 35.1519 30.7232C35.1519 31.3473 34.9319 31.8472 34.4919 32.2232C34.0519 32.5992 33.5199 32.7872 32.8959 32.7872C32.2719 32.7872 31.7799 32.5912 31.4199 32.1992C31.0599 31.8072 30.8799 31.3073 30.8799 30.6992C30.8799 30.2192 30.9999 29.8032 31.2399 29.4512C31.4799 29.0992 31.8559 28.7792 32.3679 28.4912C33.2639 27.9792 34.5439 27.7232 36.2079 27.7232C37.0879 27.7232 37.8479 27.8072 38.4879 27.9752C39.1279 28.1432 39.6719 28.4592 40.1199 28.9232C40.4399 29.2592 40.6519 29.6792 40.7559 30.1832C40.8599 30.6872 40.9119 31.3872 40.9119 32.2832V38.7152C40.9119 39.1152 40.9399 39.3872 40.9959 39.5312C41.0519 39.6752 41.1519 39.7472 41.2959 39.7472C41.4079 39.7472 41.5279 39.7112 41.6559 39.6392C41.7839 39.5672 41.9039 39.4832 42.0159 39.3872L42.2559 39.7952C41.5679 40.3872 40.5839 40.6832 39.3039 40.6832C38.3439 40.6832 37.6719 40.5192 37.2879 40.1912C36.9039 39.8632 36.6959 39.4192 36.6639 38.8592C35.9119 40.0753 34.7919 40.6832 33.3039 40.6832C32.2799 40.6832 31.5079 40.4072 30.9879 39.8552ZM36.5919 38.3552V33.2912C36.4479 33.5312 36.1839 33.8432 35.7999 34.2272C35.3679 34.6432 35.0399 35.0472 34.8159 35.4392C34.5919 35.8312 34.4799 36.3632 34.4799 37.0352C34.4799 38.1873 34.8879 38.7632 35.7039 38.7632C36.0399 38.7632 36.3359 38.6272 36.5919 38.3552ZM49.247 27.9272C49.7991 28.0632 50.219 28.2112 50.507 28.3712C50.683 28.4672 50.827 28.5152 50.939 28.5152C51.2751 28.5152 51.475 28.2592 51.539 27.7472H52.019C51.955 28.5793 51.923 30.0192 51.923 32.0672H51.443C51.315 31.0112 51.015 30.1193 50.543 29.3912C50.071 28.6632 49.3871 28.2992 48.491 28.2992C48.091 28.2992 47.755 28.4192 47.483 28.6592C47.211 28.8992 47.075 29.2272 47.075 29.6432C47.075 30.1712 47.251 30.6392 47.603 31.0472C47.955 31.4552 48.507 31.9552 49.259 32.5472C49.291 32.5632 49.523 32.7472 49.955 33.0992C50.8511 33.8353 51.507 34.4872 51.923 35.0552C52.3391 35.6233 52.547 36.3232 52.547 37.1552C52.547 37.8593 52.3311 38.4952 51.899 39.0632C51.467 39.6313 50.8791 40.0712 50.135 40.3832C49.391 40.6952 48.5791 40.8512 47.699 40.8512C46.691 40.8512 45.8671 40.6512 45.227 40.2512C44.955 40.1072 44.731 40.0032 44.555 39.9392C44.379 39.8752 44.203 39.8432 44.027 39.8432C43.723 39.8432 43.499 40.1232 43.355 40.6832H42.875C42.939 39.7712 42.971 38.1713 42.971 35.8832H43.451C43.595 37.1953 43.947 38.2512 44.507 39.0512C45.0671 39.8513 45.771 40.2512 46.619 40.2512C47.0191 40.2512 47.351 40.1392 47.615 39.9152C47.879 39.6912 48.011 39.3632 48.011 38.9312C48.011 38.4832 47.919 38.0832 47.735 37.7312C47.551 37.3792 47.327 37.0632 47.063 36.7832C46.799 36.5032 46.371 36.0992 45.779 35.5712C45.107 34.9472 44.595 34.4512 44.243 34.0832C43.891 33.7152 43.591 33.2872 43.343 32.7992C43.095 32.3112 42.971 31.7713 42.971 31.1792C42.971 30.4912 43.179 29.8832 43.595 29.3552C44.011 28.8272 44.563 28.4232 45.251 28.1432C45.9391 27.8632 46.683 27.7232 47.483 27.7232C48.107 27.7232 48.695 27.7912 49.247 27.9272ZM58.8302 28.0592H61.1822V28.5392H58.8302V38.4992C58.8302 38.8192 58.8862 39.0432 58.9982 39.1712C59.1102 39.2992 59.2942 39.3632 59.5502 39.3632C59.7422 39.3632 59.9582 39.3072 60.1982 39.1952C60.4382 39.0832 60.6542 38.9072 60.8462 38.6672L61.2062 38.9552C60.4702 40.2193 59.3342 40.8512 57.7982 40.8512C56.6942 40.8512 55.8702 40.5793 55.3262 40.0352C54.9902 39.6992 54.7702 39.2832 54.6662 38.7872C54.5622 38.2912 54.5102 37.5953 54.5102 36.6992V28.5392H52.6862V28.0592H54.5102V25.2272C55.3742 25.2272 55.8573 25.1929 56.8502 24.9752C57.843 24.7576 58.8302 23.7879 58.8302 23.7879V28.0592ZM67.2782 38.2832C67.2782 38.9392 67.3782 39.3912 67.5782 39.6392C67.7782 39.8872 68.1262 40.0112 68.6222 40.0112V40.5152C66.8942 40.4512 65.7582 40.4192 65.2142 40.4192C64.6702 40.4192 63.4702 40.4512 61.6142 40.5152V40.0112C62.1102 40.0112 62.4582 39.8872 62.6582 39.6392C62.8582 39.3912 62.9582 38.9392 62.9582 38.2832V24.7576C62.9582 24.7576 64.1485 25.1212 65.1182 25.1212C66.0879 25.1212 67.2782 24.7576 67.2782 24.7576C67.2782 29.4277 67.2782 38.2832 67.2782 38.2832ZM79.4654 36.6272L79.8734 36.7712C79.5214 37.8913 78.9254 38.8512 78.0854 39.6512C77.2453 40.4513 76.1694 40.8512 74.8573 40.8512C73.1773 40.8512 71.8334 40.3313 70.8254 39.2912C69.8173 38.2512 69.3134 36.5873 69.3134 34.2992C69.3134 32.1072 69.8773 30.4633 71.0054 29.3672C72.1334 28.2712 73.6253 27.7232 75.4813 27.7232C78.5054 27.7232 80.0173 29.5152 80.0173 33.0992H73.8254C73.8093 33.2912 73.8013 33.5792 73.8013 33.9632C73.8013 35.4993 74.0693 36.5952 74.6054 37.2512C75.1414 37.9073 75.7933 38.2352 76.5614 38.2352C77.7294 38.2352 78.6973 37.6993 79.4654 36.6272ZM73.7294 32.6432H76.5134C76.5294 31.3632 76.4374 30.3153 76.2374 29.4992C76.0373 28.6832 75.7294 28.2752 75.3134 28.2752C74.4173 28.2752 73.8894 29.7312 73.7294 32.6432Z" fill="#024746"/>
</svg>