<svg width="48" height="54" viewBox="0 0 48 54" fill="none" xmlns="http://www.w3.org/2000/svg">
<path fill-rule="evenodd" clip-rule="evenodd" d="M24.9982 51.6432C25.3943 52.1334 26.0835 52.3785 27.0659 52.3785V53.3746C23.6435 53.2481 21.457 53.1849 20.5064 53.1849C19.3973 53.1849 16.9415 53.2323 13.1388 53.3272L11.7604 53.3746V52.3785C13.123 52.3785 14.1449 52.0939 14.8262 51.5247C15.5075 50.9554 15.8482 49.9435 15.8482 48.4888V41.8953C15.1827 43.1287 14.3985 44.0299 13.4953 44.5991C12.5922 45.1684 11.4435 45.453 10.0492 45.453C7.13389 45.453 4.78898 44.3699 3.01442 42.2037C1.23986 40.0375 0.3526 36.7408 0.3526 32.3135C0.3526 28.1075 1.29532 24.9215 3.18078 22.7553C5.06625 20.5891 7.6409 19.506 10.9048 19.506C12.109 19.506 13.1388 19.5613 13.9944 19.672C14.85 19.7827 15.6422 19.9962 16.3711 20.3124C17.3217 20.6286 18.3357 20.7867 19.4131 20.7867C20.3955 20.7867 21.3065 20.6603 22.1462 20.4073C22.986 20.1543 23.6277 19.8222 24.0713 19.4111L24.404 19.9741C24.404 20.6518 24.404 21.4192 24.404 22.4944V48.9632C24.404 50.2597 24.6021 51.1531 24.9982 51.6432ZM14.8262 42.0139C15.5075 41.3657 15.8482 40.5514 15.8482 39.571V20.9765C15.1827 20.6286 14.4381 20.4547 13.6142 20.4547C10.6988 20.4547 9.24118 24.455 9.24118 32.4558C9.24118 36.3455 9.52637 39.073 10.0968 40.6383C10.6672 42.2037 11.4435 42.9864 12.4259 42.9864C13.3448 42.9864 14.1449 42.6622 14.8262 42.0139Z" fill="#F5F5F0"/>
<path fill-rule="evenodd" clip-rule="evenodd" d="M41.8073 19.9097C42.8996 20.1788 43.794 20.5191 44.4905 20.9306C45.377 21.4371 46.0735 22.1177 46.5801 22.9724C47.0867 23.8271 47.3399 24.7925 47.3399 25.8688C47.3399 27.1983 46.9125 28.2984 46.0577 29.1689C45.2029 30.0394 44.1106 30.4747 42.7809 30.4747C41.4195 30.4747 40.351 30.0869 39.5753 29.3113C38.7996 28.5358 38.4118 27.4991 38.4118 26.2012C38.4118 25.0616 38.7838 24.0566 39.5278 23.186C40.2718 22.3155 41.1979 21.7378 42.306 21.4529C41.8311 21.073 41.1979 20.8831 40.4064 20.8831C38.3801 20.8831 36.9554 21.9673 36.1322 24.1357C35.3091 26.3041 34.8975 28.8761 34.8975 31.8517C34.8975 34.8906 35.4674 37.059 36.6071 38.3568C37.7469 39.6547 39.1558 40.3036 40.8338 40.3036C43.145 40.3036 45.0604 39.2432 46.5801 37.1223L47.3874 37.4072C46.6909 39.6231 45.5116 41.5224 43.8494 43.1051C42.1872 44.6879 40.0581 45.4793 37.462 45.4793C34.011 45.4793 31.2408 44.4505 29.1512 42.3929C27.0616 40.3353 26.0168 37.0432 26.0168 32.5164C26.0168 28.1796 27.1328 24.9271 29.3649 22.7587C31.5969 20.5903 34.5492 19.5061 38.2218 19.5061C39.5199 19.5061 40.715 19.6406 41.8073 19.9097Z" fill="#F5F5F0"/>
<path d="M23.6014 21.0194V4.18896" stroke="#F5F5F0" stroke-width="1.58569" stroke-linecap="round"/>
<path fill-rule="evenodd" clip-rule="evenodd" d="M23.8068 3.92539C24.6046 3.92539 25.2514 3.27052 25.2514 2.4627C25.2514 1.65487 24.6046 1 23.8068 1C23.009 1 22.3622 1.65487 22.3622 2.4627C22.3622 3.27052 23.009 3.92539 23.8068 3.92539Z" fill="#F5F5F0" stroke="#F5F5F0" stroke-width="1.267"/>
<path fill-rule="evenodd" clip-rule="evenodd" d="M24.13 5.26237C24.13 5.00574 24.4324 4.83467 24.6642 4.94476C25.6081 5.39302 27.8553 6.19826 31.8184 6.19826C35.9744 6.19826 40.1603 5.31278 41.9508 4.88201C42.2452 4.81119 42.4744 5.15678 42.2923 5.39869L37.3054 12.0245C37.2029 12.1607 37.2265 12.3535 37.3588 12.4609L42.2103 16.4001C42.483 16.6215 42.3965 17.0504 42.0559 17.1362C40.3727 17.5603 36.2487 18.4691 31.8184 18.4691C26.8648 18.4691 24.754 17.3328 24.2524 17.0085C24.1721 16.9566 24.13 16.8674 24.13 16.7718L24.13 5.26237Z" fill="#F5F5F0"/>
</svg>
