<svg xmlns="http://www.w3.org/2000/svg" width="74" height="80" viewBox="0 0 74 80">
  <path fill-rule="evenodd" d="M41.7906667,16.8599939 C50.5699336,16.034622 59.3493713,11.0971074 68.1294301,15.2998074 L68.1294301,73.2758362 C56.0181324,67.4785914 43.9080165,79.073081 31.7979007,73.2758362 L31.7974279,64.0904055 C31.7974138,63.7529738 31.7974001,63.4155422 31.7973867,63.0781105 C22.8654259,63.868188 13.9330084,68.8721512 5.00059091,64.6496744 L5.00059091,6.6736456 C17.2643434,12.4708904 29.528096,0.876400793 41.7906667,6.6736456 L41.7906667,16.8599939 Z M48.4794168,48.3335992 C49.5359645,48.0853334 50.5925121,47.827519 51.6490597,47.5804468 C56.3278876,46.4751866 58.1916187,43.4912228 58.189255,38.7932703 L58.189255,31.223551 C58.1904369,26.6043751 56.983798,23.6717355 51.2968772,25.0013898 C48.1272343,25.7485743 44.9587732,26.581697 41.7879485,26.8788998 L41.7879485,64.6821399 C44.018044,64.4732624 46.2481395,63.9982154 48.4794168,63.475425 L48.4794168,48.3335992 Z M48.4794168,42.1854403 L48.4794168,31.5147859 C48.8977813,31.4169119 49.3173277,31.3166507 49.7356922,31.2163895 C51.3016045,30.8427972 51.4446048,31.6735327 51.4481502,33.0449625 C51.4469684,35.145673 51.4469684,37.2451899 51.4481502,39.3459004 C51.4469684,40.5144206 51.3004227,41.5134517 49.7356922,41.8870439 C49.3173277,41.9873051 48.8977813,42.0875663 48.4794168,42.1854403 Z M21.8168346,54.8656153 L21.8168346,38.7080483 C22.2860174,38.599432 22.756382,38.4884285 23.2255648,38.3774251 C24.5858403,38.0563506 24.9841139,38.4215878 24.9864775,40.2000302 L24.9864775,51.2263731 C24.9888412,52.9033607 25.240569,53.6565132 25.5903879,53.9847492 C27.8216652,53.4798625 30.0505789,53.0442038 32.2806744,52.8854569 L32.2806744,52.6312232 C32.0313102,52.1919837 31.7264005,51.5080592 31.7287642,49.8812022 L31.7287642,37.0262863 C31.7311278,34.2189732 29.9158513,33.148327 28.8604855,32.9430303 C30.1143972,32.1492959 31.8304007,30.6059899 31.8280371,27.4656664 L31.8280371,21.4189622 C31.8280371,17.3655458 29.7669419,15.2242534 25.6908426,16.1588309 C22.170199,16.9525653 18.6471918,17.9241439 15.1253663,18.2523799 L15.1253663,56.05562 C17.3566436,55.8479361 19.5867391,55.3812442 21.8168346,54.8656153 Z M21.8168346,32.4584346 L21.8168346,22.9061698 C22.3202902,22.790392 22.8237458,22.6710334 23.3260196,22.5516749 C24.6839315,22.2306004 24.9852957,22.6710334 24.9864775,24.2966969 L24.9864775,29.4291146 C24.9864775,31.207557 24.4865674,31.8306086 23.1251101,32.1516831 C22.6890183,32.2543314 22.2529265,32.3581734 21.8168346,32.4584346 Z"/>
</svg>
